/* XPM */
static char *_4a162eea7ca4e3ab10beb336f630997G4RIcouqxc85X06Q[] = {
/* columns rows colors chars-per-pixel */
"64 64 148 2 ",
"   c #161D17",
".  c #191A17",
"X  c #171C18",
"o  c black",
"O  c #152215",
"+  c #172C16",
"@  c #182018",
"#  c #162A18",
"$  c #163515",
"%  c #153A15",
"&  c #173418",
"*  c #144314",
"=  c #134C13",
"-  c #145314",
";  c #125B12",
":  c #0F690F",
">  c #11610F",
",  c #10680F",
"<  c #0F740F",
"1  c #0E7D0D",
"2  c #0F6110",
"3  c #0F6810",
"4  c #116511",
"5  c #116A11",
"6  c #117511",
"7  c #0D800D",
"8  c #0C8A0C",
"9  c #0C930C",
"0  c #0B9C0C",
"q  c #0F9510",
"w  c #0F9E10",
"e  c #109B10",
"r  c #06A707",
"t  c #07AB07",
"y  c #07A308",
"u  c #0BA20B",
"i  c #0AAB0B",
"p  c #06B206",
"a  c #08B207",
"s  c #06BE06",
"d  c #07B108",
"f  c #0AB40A",
"g  c #07BF08",
"h  c #09B90B",
"j  c #09B90A",
"k  c #0AB90A",
"l  c #09BA0A",
"z  c #0ABA0A",
"x  c #0ABB0B",
"c  c #08BA09",
"v  c #08BC08",
"b  c #08BD08",
"n  c #08BC09",
"m  c #09BC0A",
"M  c #0ABC0A",
"N  c #0ABC0B",
"B  c #0BBC0B",
"V  c #0BBD0B",
"C  c #0CBC0B",
"Z  c #0BB80C",
"A  c #0BBB0D",
"S  c #0CBB0C",
"D  c #0DBA0F",
"F  c #0EBA0F",
"G  c #0BBC0C",
"H  c #0ABD0C",
"J  c #09BE0C",
"K  c #0ABA0A",
"L  c #10A810",
"P  c #06C107",
"I  c #07C707",
"U  c #06C007",
"Y  c #03CC03",
"T  c #04CB04",
"R  c #04CB05",
"E  c #05CB05",
"W  c #06C906",
"Q  c #05CA06",
"!  c #06CB06",
"~  c #06CB07",
"^  c #03CC04",
"/  c #03CD04",
"(  c #04CC04",
")  c #05CC04",
"_  c #04CD04",
"`  c #05CC05",
"'  c #04CD05",
"]  c #05CD05",
"[  c #07CC07",
"{  c #08CA07",
"}  c #07C108",
"|  c #08C00A",
" . c #08C20A",
".. c #09C20A",
"X. c #09C30B",
"o. c #08C708",
"O. c #08C40A",
"+. c #08C50B",
"@. c #09C70B",
"#. c #0AC70A",
"$. c #0BC50B",
"%. c #07C808",
"&. c #07C808",
"*. c #08C808",
"=. c #08C809",
"-. c #08CB09",
";. c #09C80A",
":. c #09C90A",
">. c #09C80B",
",. c #09C90B",
"<. c #08CC08",
"1. c #08C809",
"2. c #02D404",
"3. c #01DD01",
"4. c #02DD01",
"5. c #00DE01",
"6. c #01DE01",
"7. c #01DD02",
"8. c #01DD03",
"9. c #02DD02",
"0. c #03DC03",
"q. c #02DD03",
"w. c #03DD03",
"e. c #00DE02",
"r. c #01DE02",
"t. c #01DE03",
"y. c #02DE02",
"u. c #04DB04",
"i. c #05DA05",
"p. c #04DB05",
"a. c #05DA06",
"s. c #05DB06",
"d. c #05DA07",
"f. c #05DB07",
"g. c #06DB07",
"h. c #02DC04",
"j. c #03DC04",
"k. c #02DD04",
"l. c #03DD04",
"z. c #02DC05",
"x. c #03DC05",
"c. c #04DC05",
"v. c #01DE02",
"b. c #07D908",
"n. c #07DA08",
"m. c #06DA08",
"M. c #08D909",
"N. c #08DA09",
/* pixels */
"o o o o o o o o o o o o o o o o o o o o o o o o o o o o o o o o o o o o o o o o o o o o o o o o o o o o o o o o o o o o o o o o ",
"o o o o o o o o o o o o o o o o o o o o o o o o o o o o o o o o o o o o o o o o o o o o o o o o o o o o o o o o o o o o o o o o ",
"o o o o o o o o o o o o o o o o o o o o o o o o o o o o o o o o o o o o o o o o o o o o o o o o o o o o o o o o o o o o o o o o ",
"o o o o o o o o o o o o o o o o o o o o o o o o o o o o o o o o o o o o o o o o o o o o o o o o o o o o o o o o o o o o o o o o ",
"o o o o o o o o o o o o o o o o o o o o o o o o o o o o o o o o o o o o o o o o o o o o o o o o o o o o o o o o o o o o o o o o ",
"o o o o o o o o o o o o o o o o o o o o o o o o o o o o o o o o o o o o o o o o o o o o o o o o o o o o o o o o o o o o o o o o ",
"o o o o o o o o o o o o o o o o o o o o o o o o o o o o o o o o o o o o o o o o o o o o o o o o o o o o o o o o o o o o o o o o ",
"o o o o o o o o o o o o o o o o o o o o o o o o o o o o o o o o o o o o o o o o o o o o o o o o o o o o o o o o o o o o o o o o ",
"o o o o o o o o o o o o o o o o o o o o o o o o o o o o o o o o o o o o o o o o o o o o o o o o o o o o o o o o o o o o o o o o ",
"o o o o o o o o o o o o o o o o o o o o o o o o o o o o o o o o o o o o o o o o o o o o o o o o o o o o o o o o o o o o o o o o ",
"o o o o o o o o o o o o o o o o o o o o o o o o o o o o o o o o o o o o o o o o o o o o o o o o o o o o o o o o o o o o o o o o ",
"o o o o o o o o o o o o o o o o o o o o o o o o o o o o o o o o o o o o o o o o o o o o o o o o o o o o o o o o o o o o o o o o ",
"o o o o o o o o o o o o o o o o o . . . o o o o o o o o o o o o o o o o o o o o o o o o . X o o o o o o o o o o o o o o o o o o ",
"o o o o o o o o o o o o o o o 6 -.-.-.X.- o o o o o o o o o o o o o o o o o o o o o o = X.-.-.-.6 o o o o o o o o o o o o o o o ",
"o o o o o o o o o o o o o o o 1 5.5.5.f.c   o o o o o o o o o o o o o o o o o o o o . t 3.3.t.5.1 o o o o o o o o o o o o o o o ",
"o o o o o o o o o o o o o o o 7 5.5.5.3.X.  o o o o o o o o o o o o o o o o o o o o . c t.3.3.5.7 o o o o o o o o o o o o o o o ",
"o o o o o o o o o o o o o o o 7 t.3.3.t.&.  . o . o o o o o o o o o o o o o o . . .   d t.3.3.t.7 o o o o o o o o o o o o o o o ",
"o o o o o o o o o o o o o o o 5 X.X.} b Z % % % & o o o o o o o o o o o o o o $ % $ % u G } X.&.5 o o o o o o o o o o o o o o o ",
"o o o o o o o o o o o o o o o   1 0 9 8 } 3.3.3.-.* o o o o o o o o o o o o % X.3.3.3.} 9 0 u 1 @ o o o o o o o o o o o o o o o ",
"o o o o o o o o o o o o o o o o o o . . p 3.3.3.<.5 o o o o o o o o o o o o 4 %.3.3.3.d X X o o o o o o o o o o o o o o o o o o ",
"o o o o o o o o o o o o o o o o o o o o p 3.5.5.-.5 o o o o o o o o o o o o > %.3.3.5.p o o o o o o o o o o o o o o o o o o o o ",
"o o o o o o o o o o o o o o o o o o o o a 3.3.3.-.4 o o o o o o o o o o o o ; T 3.3.3.a o o o o o o o o o o o o o o o o o o o o ",
"o o o o o o o o o o o o o o o * : : 3 5 0 b b b i 9 3 : 3 ; 3 3 3 3 ; : 5 3 8 i b s b w 5 : : : * o o o o o o o o o o o o o o o ",
"o o o o o o o o o o o o o o X 7 3.3.t.t.s t.3.t.U f.5.3.3.s t.5.3.3.c 3.3.t.M.s 3.3.3.s t.5.3.3.7 o o o o o o o o o o o o o o o ",
"o o o o o o o o o o o o o o o 7 3.5.5.t.s 3.3.3.} f.3.3.3.l 3.3.3.3.c 3.3.3.f.} 5.5.5.s t.3.3.3.7 o o o o o o o o o o o o o o o ",
"o o o o o o o o o o o o o o o 7 3.3.3.t.s 3.3.3.U f.5.3.3.c 3.3.5.3.h 3.3.3.f.s 5.5.5.U t.3.3.t.7 o o o o o o o o o o o o o o o ",
"o o o o o o o o o o o o o o o 7 t.3.t.t.s 3.3.3.s n.3.5.3.h t.t.3.3.c t.3.t.M.} 3.3.3.c f.t.3.t.7 o o o o o o o o o o o o o o o ",
"o o o o o o o o o o % 0 0 0 0 q G C b D < 5 5 5 4 C G G b w G G G G w b G G F 2 , , 5 < C b G b q 0 0 0 0 % o o o o o o o o o o ",
"o o o o o o o o o o = 3.3.3.5.b 3.3.3.t.9 X o o O n.3.5.5.b 3.3.3.3.h 3.3.5.f.O o o   8 t.5.5.3.b 3.3.5.5.=   o o o o o o o o o ",
"o o o o o o o o o o = 3.3.3.5.b 5.3.3.3.0 X o o O n.3.3.3.c t.3.3.3.l 3.3.5.f.O o o   9 t.5.5.3.b 3.5.5.5.= o o o o o o o o o o ",
"o o o o o o o o o o = 3.3.3.3.b 5.3.3.t.t X o o O f.3.3.3.c t.t.3.5.h 3.3.3.f.O o o X 9 t.3.t.3.s 3.5.5.3.= o o o o o o o o o o ",
"o o o o o o o o . . = T ^ ( ^ i ( ( ^ T u X . . O >.R R ^ i T T ( ( i ( ^ T >.O . .   1 %.( T ( i ( ( ( ( * . . . o o o o o o o ",
"o o o o o   <./ ( 2.i ( _ _ 2.i ( ( ( %.i 2.( ( f -.( ( ( i ( ^ ^ ( i ^ ^ ^ ,.f ( ( ( a %.( ( ( f ^ ^ ( ( L 2.( ( -.X o o o o o ",
"o o o o o   w.3.t.t.C 5.3.3.3.v 5.5.3.t.s 5.5.5.s f.5.5.t.b t.5.3.t.h 5.5.5.f.s 5.5.5.U t.5.5.5.c 3.3.3.5.C 3.3.3.f.  o o o o o ",
"o o o o o   a.3.3.3.G 3.3.3.3.v 5.5.3.t.s 3.5.5.s n.3.5.5.b t.5.3.3.l 3.5.3.f.} 5.5.3.s t.3.5.5.b 5.5.5.5.C 5.5.5.w.  o o o o o ",
"o o o o o . a.3.3.3.G 5.5.5.3.v 5.5.3.t.s 3.3.3.} n.t.3.3.c 3.3.t.3.h 3.5.3.n.s 5.5.3.s a.3.5.5.b 5.5.5.3.C 5.5.5.w.. o o o o o ",
"o o o o o   h c h c e h u 0 0 q b h c Z 0 c h h u Z f h c 0 c c h c w G h h D u c h c 0 Z h c b q 0 0 0 a w c h c h   o o o o o ",
"o o o o o   a.3.3.t.c 8 & o o 1 t.t.3.a.s t.t.3.s n.t.t.3.l f.3.f.3.l 3.3.t.n.b t.3.t.b a.3.t.f.1 o o & 9 f 3.5.3.f.  o o o o o ",
"o o o o o   t.3.3.3.$.r &   o 7 t.3.3.t.s 3.3.3.} f.3.3.3.l t.3.3.3.h 3.5.3.n.s 3.5.3.s t.3.5.5.7 o X $ y a 5.5.3.f.X o o o o o ",
"o o o o o   a.3.3.3.&.c & o o 7 3.3.t.t.s 5.3.3.} f.3.3.3.l t.3.3.3.c 5.5.3.n.s 3.3.3.s t.3.5.5.7 o o $ t l 5.5.3.f.  o o o o o ",
"o o o o o X a.3.5.5.-.s & o o 7 3.5.3.f.s 3.3.3.b n.t.t.t.c t.t.3.3.c t.3.t.n.} 3.3.3.} t.3.3.3.1 o . & i G 3.3.3.3.X o o o o o ",
"o o o o o   D c h c L h % o o 5 c G c D 0 : 3 3 ; 4 3 3 3 ; 3 3 3 3 ; 3 4 5 4 ; 3 3 3 9 D b c h 3 o . % u e c b c D   o o o o o ",
"o o o o o   3.3.3.3.$.2.% o o 7 t.5.5.t.u   o o o o o o o o o o o o o o o o o o o o O 0 t.3.5.5.7 X . $ s l 5.5.3.a.  o o o o o ",
"o o o o o   a.3.3.3.$.2.% o o 1 3.3.5.t.t X o o o o o o o o o o o o o o o o o o o X   0 3.5.5.3.7 o . % s l 3.3.3.3.  o o o o o ",
"o o o o o   3.3.5.5.-.2.% o o 7 t.5.3.3.a   o o o o o o o o o o o o o o o o o o o o X 0 3.3.3.3.7 o o % s b 3.3.3.t.X o o o o o ",
"o o o o o   a.3.3.3.$.8 @ o o 1 t.5.3.t.i r u t i q u t u 1 o o o o 1 r i r 8 i 0 9 1 1 f.3.3.3.7 o o @ 1 G 3.3.3.a.  o o o o o ",
"o o o o o o $ $ % $ + o o o o # % $ $ $ w -.-.X.i $.{ X.-.q o o o o q -.X.-.$.i T -.X.0 $ $ $ $ # o o o o + $ $ $ $ o o o o o o ",
"o o o o o o o o o o o o o o o o o o o o p 5.5.5.U a.3.3.w.i o o o o 0 3.3.3.M.s 3.3.3.p X o o o o o o o o o o o o o o o o o o o ",
"o o o o o o o o o o o o o o o o o o o o d 3.3.3.s f.3.3.3.i o o o o u 3.5.5.N.s 3.3.t.p o o o o o o o o o o o o o o o o o o o o ",
"o o o o o o o o o o o o o o o o o o o o d 3.3.3.} n.5.5.w.u o o o X w 3.5.t.f.s 5.3.3.p o o o o o o o o o o o o o o o o o o o o ",
"o o o o o o o o o o o o o o o o o o o o 0 &.&.&.i $.%.%.-.7 o o o o 1 %.-.%.$.i %.%.&.0 o o o o o o o o o o o o o o o o o o o o ",
"o o o o o o o o o o o o o o o o o o o o o X o X o o o   o   o o o o X . o o X o o   o o o o o o o o o o o o o o o o o o o o o o ",
"o o o o o o o o o o o o o o o o o o o o o o o o o o o o o o o o o o o o o o o o o o o o o o o o o o o o o o o o o o o o o o o o ",
"o o o o o o o o o o o o o o o o o o o o o o o o o o o o o o o o o o o o o o o o o o o o o o o o o o o o o o o o o o o o o o o o ",
"o o o o o o o o o o o o o o o o o o o o o o o o o o o o o o o o o o o o o o o o o o o o o o o o o o o o o o o o o o o o o o o o ",
"o o o o o o o o o o o o o o o o o o o o o o o o o o o o o o o o o o o o o o o o o o o o o o o o o o o o o o o o o o o o o o o o ",
"o o o o o o o o o o o o o o o o o o o o o o o o o o o o o o o o o o o o o o o o o o o o o o o o o o o o o o o o o o o o o o o o ",
"o o o o o o o o o o o o o o o o o o o o o o o o o o o o o o o o o o o o o o o o o o o o o o o o o o o o o o o o o o o o o o o o ",
"o o o o o o o o o o o o o o o o o o o o o o o o o o o o o o o o o o o o o o o o o o o o o o o o o o o o o o o o o o o o o o o o ",
"o o o o o o o o o o o o o o o o o o o o o o o o o o o o o o o o o o o o o o o o o o o o o o o o o o o o o o o o o o o o o o o o ",
"o o o o o o o o o o o o o o o o o o o o o o o o o o o o o o o o o o o o o o o o o o o o o o o o o o o o o o o o o o o o o o o o ",
"o o o o o o o o o o o o o o o o o o o o o o o o o o o o o o o o o o o o o o o o o o o o o o o o o o o o o o o o o o o o o o o o ",
"o o o o o o o o o o o o o o o o o o o o o o o o o o o o o o o o o o o o o o o o o o o o o o o o o o o o o o o o o o o o o o o o ",
"o o o o o o o o o o o o o o o o o o o o o o o o o o o o o o o o o o o o o o o o o o o o o o o o o o o o o o o o o o o o o o o o "
};