/* XPM */
static char *_5f2269ddeaa473da7b4532f99cf17c6DjPYWty9gmOjctIN[] = {
/* columns rows colors chars-per-pixel */
"64 64 143 2 ",
"   c white",
".  c #010202",
"X  c #010303",
"o  c #020505",
"O  c #020606",
"+  c #030909",
"@  c #040B0C",
"#  c #040C0C",
"$  c #050D0D",
"%  c gray3",
"&  c gray4",
"*  c #0A0E0F",
"=  c #060F10",
"-  c #071212",
";  c #081516",
":  c #0A1A1A",
">  c #0A1A1B",
",  c #0A1B1B",
"<  c #0F2627",
"1  c #122F30",
"2  c #143233",
"3  c #163839",
"4  c #2F2D2E",
"5  c #3B393A",
"6  c #3B3A3B",
"7  c #194041",
"8  c #194042",
"9  c #1B4446",
"0  c #1B4546",
"q  c #1F4647",
"w  c #1D4849",
"e  c #1E4C4D",
"r  c #1E4D4E",
"t  c #205254",
"y  c #205354",
"u  c #205355",
"i  c #215455",
"p  c #26595B",
"a  c #27595B",
"s  c #245C5E",
"d  c #28595B",
"f  c #3C5A5C",
"g  c #286769",
"h  c #29696B",
"j  c #2C7072",
"k  c #2C7073",
"l  c #2D7274",
"z  c #2E777A",
"x  c #307A7D",
"c  c #307C7E",
"v  c #585657",
"b  c #5F5C5E",
"n  c #5F5E5E",
"m  c #605E5E",
"M  c #797677",
"N  c #317E81",
"B  c #348083",
"V  c #348689",
"C  c #378A8D",
"Z  c #378C90",
"A  c #388F92",
"S  c #3A9598",
"D  c #3C9A9D",
"F  c #3D9B9E",
"G  c #40A2A6",
"H  c #41A6A9",
"J  c #43A9AD",
"K  c #43AAAE",
"L  c #43ABAE",
"P  c #43ABAF",
"I  c #48B6BA",
"U  c #48B7BB",
"Y  c #49B8BC",
"T  c #4ABBBF",
"R  c #4BBEC2",
"E  c #4CBFC3",
"W  c #4CC0C4",
"Q  c #50CACE",
"!  c #53D1D5",
"~  c #55D7DC",
"^  c #59D6DA",
"/  c #56D9DE",
"(  c #59E0E5",
")  c #59E1E6",
"_  c #59E2E6",
"`  c #5AE2E7",
"'  c #5AE3E8",
"]  c #5AE4E8",
"[  c #5AE4E9",
"{  c #5BE5EA",
"}  c #5BE6EB",
"|  c #5BE7EC",
" . c #5CE7EC",
".. c #5CE8ED",
"X. c #5EE8ED",
"o. c #5FE8ED",
"O. c #5CE9EE",
"+. c #60E8ED",
"@. c #61E8ED",
"#. c #66E8ED",
"$. c #67E8ED",
"%. c #67E8EE",
"&. c #6AE9EE",
"*. c #6BE9EE",
"=. c #6CE9EE",
"-. c #6DE9EE",
";. c #70E9EE",
":. c #73E9EE",
">. c #75EAEE",
",. c #76EAEE",
"<. c #928F90",
"1. c #8CBABF",
"2. c #B0A9AD",
"3. c #BFB8BC",
"4. c #C5BDC2",
"5. c #84EAEF",
"6. c #84EBEF",
"7. c #84ECF0",
"8. c #97EBF0",
"9. c #97EDF0",
"0. c #99EBF0",
"q. c #9EEDF1",
"w. c #A0EBF1",
"e. c #AAECF2",
"r. c #B2ECF2",
"t. c #B2EFF2",
"y. c #B4ECF2",
"u. c #B7ECF2",
"i. c #BEEDF3",
"p. c #BEF0F3",
"a. c #CAC3C7",
"s. c #C2EDF3",
"d. c #CEEEF3",
"f. c #D9EEF4",
"g. c #DAEEF4",
"h. c #D0F1F3",
"j. c #D6F2F4",
"k. c #FAF0F6",
"l. c #FAF1F6",
"z. c #FAF2F6",
"x. c #FAF3F6",
"c. c #FAF5F6",
"v. c #FBF5F6",
/* pixels */
"                                                                                                                                ",
"                                                                                                                                ",
"                                                                                                                                ",
"                                                                                                                                ",
"                                                                                                                                ",
"                                                                                                                                ",
"                                                                                                                                ",
"                                                    < h h h h h h h h h h s                                                     ",
"                                                    i O.O. .O. ...........Q                                                     ",
"                                                    i  . .O. .O...........Q                                                     ",
"                                                    i O.O. .O. ...........Q                                                     ",
"                                      C K K K K K K E O. .O. .O......... .( K K K K K K K 3                                     ",
"                                      R ........ .......O. .O. ................. .........r                                     ",
"                                      R ........ ....... .O. .O...........................r                                     ",
"                              o @ O @ E ................O. .O. ...........................i @ @ @                               ",
"                              c ' ' '  ................. .O. .O...........................[ ` ` ` @                             ",
"                              N ................ ...........O. .....................| | ..O.| | | #                             ",
"                              N ................ . ......... . .....................| | ..| | | ..$                             ",
"                      - 8 8 8 F ..............6.6.6.6.7.7.7.*. ...................-.7.7.7.7.7.7.6.w 8 8 2                       ",
"                      8 .... .............| &.k.k.k.k.k.k.k.0. ...................q.v.v.v.v.c.c.v.@.....U                       ",
"                      8 ....................#.k.k.k.k.k.k.k.0.| ..................q.c.c.c.c.c.c.v.@.....U                       ",
"                      8 ....................#.k.k.k.k.k.k.k.0.| ..................q.c.c.c.c.c.c.v.@.....U                       ",
"                      8 ..............w.r.r.u.k.k.k.k.k.k.k.d.u.r.r.%.....&.t.t.t.h.c.c.c.z.z.z.v.r.r.r.1.                      ",
"                      8 ..............f.k.k.k.k.k.k.k.k.k.k.k.k.z.z.;.....,.c.c.c.c.c.c.z.z.k.k.k.k.k.k.4.                      ",
"                      8 ..............f.k.k.k.k.k.k.k.k.k.k.k.k.k.k.;. .O.,.c.c.c.c.c.c.c.z.k.k.k.k.k.k.4.                      ",
"                      8 ..............f.k.k.k.k.k.k.k.k.k.k.k.k.k.k.;.O. .,.c.c.c.c.c.c.c.z.k.z.k.k.k.k.4.                      ",
"                      8 ..............f.k.k.k.k.k.k.3.6 6 6 6 6 6 6 ^  .O.,.c.c.c.c.c.c.c.M 6 6 6 6 6 6 4                       ",
"                      8 ..............f.k.k.k.k.k.k.2.& & & & & & & !  . .,.c.c.c.c.c.c.c.v & & & & & % %                       ",
"                      8 ..............f.k.k.k.k.k.k.2.& & & & & & & !  .O.,.c.c.c.c.c.c.v.v & & & & & & %                       ",
"                > > > i ..............f.k.k.k.k.k.k.2.& & & & & & & ! O. .,.c.c.c.c.c.c.v.v & & & & & & * > > > $               ",
"                ` ....................f.k.k.k.k.k.k.2.& & & & & & & !  .O.,.c.c.c.c.v.v.v.v & & & & & & q ......j               ",
"                ` | ..................f.k.k.k.k.k.k.2.& & & & & & & ! O. .,.c.c.c.c.v.v.v.v & & & & & & q ......j               ",
"                ] ....................f.k.k.k.k.k.k.2.& & % & % & & !  .O.,.c.c.c.c.c.c.c.v & & & & & & q ......l               ",
"                ` ....................e.i.i.s.k.k.k.a.b m m f p p p / O. .-.p.p.p.j.c.c.c.<.n n m d p p B ......j               ",
"                ` | ....................| | %.k.k.k.k.k.z.k.0...O. .O. .O. .O. . .q.c.c.c.c.c.c.c.@.O. .........j               ",
"                ] | ........................%.k.k.k.k.k.k.k.0... .O. .O. .O. .O.O.q.c.c.c.c.c.c.c.@. .O.........j               ",
"                ` | | .................. .O.%.k.k.k.k.k.k.k.0...O. .O. .O. .O. .| q.c.c.c.c.c.c.v.@.............j               ",
"                _ | ....................O. .+.8.0.8.8.8.9.9.:... .O. .O. .O. .O.O.,.9.9.9.9.9.9.0.O.............j               ",
"                ] ...................... .O. .O. .O. .O.........O. .O. .O. .O. .O. .O. .O. .O. .................j               ",
"                ] ......................O. .O. .O. .O. ......... .O. .O. .O. .O. .O. .O. .O. .O.................j               ",
"                ` | | ..........................................O. .O. .O. .O. .O. .O. .O. .O. .................j               ",
"                ] | ............................................ .O. .O. .O. .O. .O. .O. .O. .O.................j               ",
"                ` | ............................................O. .O. .O. .O. .O. .O. .O. .O. .................j               ",
"                ] .............................................. .O. .O. .O. .O. .O. .O. .O. .O.................j               ",
"                ` | | ..........................................O. .O. .O. .O. .O. .O. .O. .O. .................j               ",
"                ` | ............................................ .O. .O. .O. .O. .O. .O. .O. .O.................j               ",
"                ` | ............................................O. .O. .O. .O. .O. .O. .O. .O. .................j               ",
"                ' .............................................. .O. .O. .O. .O. .O. .O. .O. .O.................j               ",
"                ` | ............................................................................................j               ",
"                ` ..............................................................................................j               ",
"                ` | | ..........................................................................................j               ",
"                ` | ..................| ........................................................................j               ",
"                ] ............S 9 9 9 Q ............U 9 9 9 0 0 9 9 / ....................x q 9 9 [ ............j               ",
"                ` ............l       W ............G               ! ....................r       [ ............j               ",
"                ` | ..........l       W ............G               ! ....................r       ' .. .........j               ",
"                ] | .. .} [ | j       T } [ | ......G               ! ..............[ [ [ r       ' [  .|  .....j               ",
"                _ | O.U O O O X       O O O , ......G               ! ............A O O O X       o o o 9 ......j               ",
"                ]  . .U X                   ; ......G               ! ............Z                     8 ......j               ",
"                _  ...U                     ; | ....G               ! |  . .....| Z                     8 ......j               ",
"                G P P V                     - K P P z               F P P P P P K h                     2 P K K i               ",
"                                                                                                                                ",
"                                                                                                                                ",
"                                                                                                                                ",
"                                                                                                                                "
};