/* XPM */
static char *f8daff7304a64ed09351399f4feaffdaRXL2yE0NvUqpCQBN[] = {
/* columns rows colors chars-per-pixel */
"64 64 185 2 ",
"   c #010101",
".  c #080203",
"X  c #0D0708",
"o  c #0C0A0B",
"O  c #120E0E",
"+  c #061613",
"@  c #1B1B1B",
"#  c #1A150B",
"$  c #271E0C",
"%  c #2C0212",
"&  c #211217",
"*  c #211C1C",
"=  c #0A231D",
"-  c #06261F",
";  c #15271D",
":  c #23311E",
">  c #3A2D14",
",  c #072621",
"<  c #092620",
"1  c #092E28",
"2  c #062922",
"3  c #192A24",
"4  c #0A342B",
"5  c #0E3D36",
"6  c #103E36",
"7  c #302728",
"8  c #362B2D",
"9  c #313131",
"0  c #4B021F",
"q  c #4C3515",
"w  c #533D18",
"e  c #5F0227",
"r  c #540323",
"t  c #421C28",
"y  c #600227",
"u  c #620228",
"i  c #780330",
"p  c #42242D",
"a  c #472732",
"s  c #443638",
"d  c #413839",
"f  c #0E443B",
"g  c #0E493F",
"h  c #15433C",
"j  c #3C4736",
"k  c #594119",
"l  c #56421A",
"z  c #60461D",
"x  c #6A4D21",
"c  c #653544",
"v  c #76364C",
"b  c #124C42",
"n  c #13574A",
"m  c #125448",
"M  c #284B45",
"N  c #3E5753",
"B  c #38504C",
"V  c #166355",
"C  c #19695B",
"Z  c #20665C",
"A  c #186E60",
"S  c #1B7565",
"D  c #1B7A6A",
"F  c gray28",
"G  c #454D4A",
"H  c #584847",
"J  c #4C5150",
"K  c #565656",
"L  c #5A5A5A",
"P  c #7F4156",
"I  c #655354",
"U  c #625959",
"Y  c #654A50",
"T  c #47635E",
"R  c #4D6F68",
"E  c #4B6864",
"W  c #4B736C",
"Q  c #557570",
"!  c #776162",
"~  c #757575",
"^  c gray50",
"/  c #696364",
"(  c #94023D",
")  c #876827",
"_  c #81364F",
"`  c #C80253",
"'  c #D40258",
"]  c #E1005C",
"[  c #84445A",
"{  c #905B6E",
"}  c #A65570",
"|  c #836972",
" . c #8C7C77",
".. c #A56176",
"X. c #1C816F",
"o. c #1E8976",
"O. c #1F8A78",
"+. c #208776",
"@. c #208978",
"#. c #268B7A",
"$. c #43867B",
"%. c #68827D",
"&. c #B17184",
"*. c #CD688B",
"=. c #C36283",
"-. c #DF7196",
";. c #C77B91",
":. c #F16192",
">. c #E27499",
",. c #F17CA3",
"<. c #27AC95",
"1. c #27A992",
"2. c #27BBA1",
"3. c #579A8D",
"4. c #4B9085",
"5. c #698782",
"6. c #768E8A",
"7. c #41A18F",
"8. c #2BC5AC",
"9. c #2CC8AE",
"0. c #29C0A5",
"q. c #2CCCB2",
"w. c #2ED1B6",
"e. c #2DD4B9",
"r. c #2FDBBE",
"t. c #31DBBF",
"y. c #2FDFC0",
"u. c #31DEC1",
"i. c #2FE2C4",
"p. c #33EACB",
"a. c #33E4C5",
"s. c #888E8D",
"d. c #82908E",
"f. c #938E90",
"g. c #939393",
"h. c #9A9A9A",
"j. c #989696",
"k. c #8B9590",
"l. c #B28F94",
"z. c #BB959A",
"x. c #A68689",
"c. c #9DB1AD",
"v. c #99AEAC",
"b. c #ACABAB",
"n. c #ABB8B6",
"m. c #BBBBBB",
"M. c #B4B8B8",
"N. c #C39DA2",
"B. c #FF80AB",
"V. c #FD89AF",
"C. c #FD89B1",
"Z. c #FD95B5",
"A. c #FD98B7",
"S. c #FD9AB9",
"D. c #E58EA9",
"F. c #CBA4A7",
"G. c #D3AAAE",
"H. c #D7AEB3",
"J. c #DFB4B8",
"K. c #C2BEB9",
"L. c #FDA6BE",
"P. c #EABCBC",
"I. c #E8A8B7",
"U. c #B6C1BE",
"Y. c #FDAAC1",
"T. c #FDB4C6",
"R. c #FDBDC9",
"E. c #F5B8C3",
"W. c #EBBEC2",
"Q. c #C7CBCB",
"!. c #CBD4D2",
"~. c #DEDEDD",
"^. c #D2D6D5",
"/. c #F3C5C8",
"(. c #FCC4CD",
"). c #FEC9CF",
"_. c #FFCDD2",
"`. c #DCE1DF",
"'. c #DDE2E1",
"]. c #E3E5E5",
"[. c #E5EAE9",
"{. c #EFF1F0",
"}. c #F4F5F5",
"|. c #F7F8F8",
" X c #FFFFFF",
/* pixels */
" X X X X X X X X X X X X X X X X X X X X X X X X X X X X X X X X X X X X X X X X X X X X X X X X X X X X X X X X X X X X X X X X",
" X X X X X X X X X X X X X X X X X X X X X X X X X X X X X X X X X X X X X X X X X X X X X X X X X X X X X X X X X X X X X X X X",
" X X X X X X X X X X X X X X X X X X X X X X X X X X X X X X X X X X X X X X X X X X X X X X X X X X X X X X X X X X X X X X X X",
" X X X X X X X X X X X X X X X X X X X X X X X X X X X X X X X X X X X X X X X X X X X X X X X X X X X X X X X X X X X X X X X X",
" X X X X X X X X X X X X X X X X X X X X X X X X X X X X X X X X X X X X X X X X X X X X X X X X X X X X X X X X X X X X X X X X",
" X X X X X X X X X X X X X X X X X X X X X X X X X X X X X X X X X X X X X X X X X X X X X X X X X X X X X X X X X X X X X X X X",
" X X X X X X X X X X X X X X X X X X X X X X X X X X X X X X X X X X X X X X X X X X X X X X X X X X X X X X X X X X X X X X X X",
" X X X X X X X X X X X X X X X X X X X X X X X X X X X X X X X X X X X X X X X X X X X X X X X X X X X X X X X X X X X X X X X X",
" X X X X X X X X X X X X X X X X X X X X X X X X X X X X X X X X X X X X X X X X X X X X X X X X X X X X X X X X X X X X X X X X",
" X X X X X X X X X X X X X X X X X X X X X X X X X X X X X X X X X X X X X X X X X X X X X X X X X X X X X X X X X X X X X X X X",
" X X X X X X X X X X X X X X X X X X X X X X X X X X X X X X X X X X X X X X X X X X X X X X X X X X X X X X X X X X X X X X X X",
" X X X X X X X X X X X X X X X X X X X X X X X X X X X X X X X X X X X X X X X X X X X X X X X X X X X X X X X X X X X X X X X X",
" X X X X X X X X X X X X X X X X X X X X X X X X X X X X X X X X X X X X X X X X X X X X X X X X X X X X X X X X X X X X X X X X",
" X X X X X X X X X X X X X X X X X X X X X X X X X X X X X X X X X X X X X X X X X X X X X X X X X X X X X X X X X X X X X X X X",
" X X X X X X X X X X X X X X X X X X X X X X X X X X X X X X X X X X X X X X X X X X X X X X X X X X X X X X X X X XR R R R R  X",
" X X X X X X X X X X X X X X X Xs.                        ~. X X X X X X X X X X X X X X X X X X X X X X X X X X X X5 5 5 5 5  X",
" X X X X X X X X X X X X X X X Xs.                        ~. X X X X X X X X X X X X X X X X X X X X X X X X X X5 h p.r.8.D 5  X",
" X X X X X X X X X X XQ.h.h.h.h.| c c I I I I I I I Y c c f.h.h.h.h.]. X X X X X X X X X X X X X X X X X X X X X5 5 p.y.9.D 5  X",
" X X X X X X X X X X X~         v B.B._._._._._._._.R.B.B.&         K. X X X X X X X X X X X X X X X X X X XM 6 p.p.9.e.p.O.5 |.",
" X X X X X X X X X X X~         v V.B._._._._._._._.T.B.B.@         m. X X X X X X X X X X X X X X X X XQ.h.1.+.r.r.e.8.1.3.6. X",
" X X X X X X X X Xo o [ ,.,./././.).)._._._._._._._._.).)././.E.,.,.a O 3  X X X X X X X X X X X X X X X5.6 u.p.8.9.p.<.5 c. X X",
" X X X X X X X X X    [ B.B._._._._._._._._._._._._._._._._._.R.,.B.p   @  X X X X X X X X X X X X X~.5.7.<.w.e.y.r.D 3.n.]. X X",
" X X X X X X^.M.m.a a } A.A._._._._._._._._._._._._._._._._._.(.A.A.a   @  X X X X X X X X X X X X XQ.6 <.p.q.9.p.p.f 5. X X X X",
" X X X X X XL     B.B.Y._._._._._._._._._._._._._._._._._._._._._._.9   @  X X X X X X X X X X X'.E #.8.q.q.i.i.V C ^.]. X X X X",
" X X X X X XL     B.B.Y._._._._._._._._._._._._._._._._._._._._._._.s   @  X X X X X X X X X X X^.5 A p.e.9.p.p.h h  X X X X X X",
" X X X X X XL     (.(.)._._._._._._._._._._._._._._._._._._._._._._.D.>.*.3 , = 2 g. X X X X X5 V p.i.9.u.p.g 5  X X X X X X X X",
" X X X X X XL     _._._._._._._._._._._._._._._._._._._._._._._._._.Z.B.>.  , , 4 5.!.{. X!.!.C X.a.y.w.8.2.W W  X X X X X X X X",
" X X X XQ.Q./ 8 8 _._._._._._._._._._._._._._._.G.F.H._._.G.F.G._._.Z.,.>.  , 1 V f , U. X5 5 p.i.q.w.p.D 5 {. X X X X X X X X X",
" X X X}.    x._._._._._._._._._._._._._._._._._.O   s _._.*   7 _._.Z.B.>.  + N b b f k.M.S S r.r.e.9.<.3.%.|. X X X X X X X X X",
" X X X|.    x._._._._._._._._._._._._._._._._._.O   s _._.*   7 _._.Z.B.>.    k., n @.f 2 p.p.9.q.p.2.f n. X X X X X X X X X X X",
" X~ 9 d =.=.I._._._._._._._._._._._._._._._._._.O   s _._.*   7 _._.R.R.E.N.N.U < n @.f 2 w.e.i.9.S $.U.[. X X X X X X X X X X X",
" XF . o B.B.T._._._._._._._._._._._._._._._._._.O   s _._.*   7 _._._._._._._.H - n @.f < 9.9.p.9.5 Q  X X X X X X X X X X X X X",
" XF   o C.C.T._._._._._._._._._._._._._._._._._.O   s _._.*   7 _._._._._._._.H   + - A @.- - 2 J  X X X X X X X X X X X X X X X",
" XF   o _._._._._._._._._._._._._._._._._._._._.O   s _._.*   7 _._._._._._.).H   O - C @.- 2 2 N  X|. X X X X X X X X X X X X X",
" XF   o _._._._._._._._._._._._._._._._._._._._.O   s _._.*   7 _._._._._._.).H q k z : - #.+.V n 2 E  X X X X X X X X X X X X X",
" XF   o _._._._._._._._._._._._._._._.S.S.S.S.S.l.l.F._._.z.l.z.S.S.S.S.S._.W.H w z z j M D D n b 1 T '.}. X X X X X X X X X X X",
" XF   o _._._._._._._._._._._._._._._.,.,.B.B.B.)._._._._._._.R.B.,.B.,.V.P.q w ) l $ K. X< , , 4 V m - b. X X X X X X X X X X X",
" XF   o _._._._._._._._._._._._._._._.B.V.B.B.B.(._._._._._._.(.B.,.&.{ {  .w l k > s.~. Xs.6.d.%.f 5 - n. X X X X X X X X X X X",
" XF   X B.B.Y._._._._.Y.B.B._._._._._._._._._._._._._._._._._._._._.L , , ; x z $ #  X X X X X X!., , , n. X X X X X X X X X X X",
" XF   X B.B.T._._._._.L.B.B._._._._._._._._._._._._._._._._._._._._.L , D S 3 ; . o  X X X X X X|.].~.'.}.|. X X X X X X X X X X",
" XM.h.j.c c ;.S.Y._._.&.c c _._._._._._._._._._._._.H.U U P._._._._.J 1 O.D 2 +   o  X X X X X X X X X X X X X X X X X X X X X X",
" X X X}.    } B.,._._.!     _._._._._._._._._._._._.z.    I._._._._.G , < 2 , =   o  X X X X X X X X X X X X X X X X X X X X X X",
" X X X}.    } B.B._._.!     _._._._._._._._._._._._.z.    J._._._._.G , < 3 3 =      X X X X X X X X X X X X X X X X X X X X X X",
" X X X X X XL         _ :.:._._._._._._._._._._._._._._._._._.(.,.,.p       . b. X X X X X X X X X X X X X X X X X X X X X X X X",
" X X X X X XL         _ :.:._._._._._._._._._._._._._._._._._.(.B.B.p         b. X X X X X X X X X X X X X X X X X X X X X X X X",
" X X X X X Xb.^ ^     t v v L.L.Y.Y.Y._._._._._._._._._._.Y.Y.D.P [ &   O ^ ^ ^. X X X X X X X X X X X X X X X X X X X X X X X X",
" X X X X X X X X X      X   C.C.,.,.B._._._._._._._._._._.C.B.*.        @  X X X X X X X X X X X X X X X X X X X X X X X X X X X",
" X X X X X X X X X.         ,.,.C.,.B._._._._._._._._._._.C.,.*.        @  X X X X X X X X X X X X X X X X X X X X X X X X X X X",
" X X X X X XL     ] ] ] ] ] .                                 % ] ] ] ] `     b. X X X X X X X X X X X X X X X X X X X X X X X X",
" X X X X X XL     ] ] ] ] ]                                   % ] ] ] ] `     b. X X X X X X X X X X X X X X X X X X X X X X X X",
" X X X|.g.g.v y u ] ] ] ] ] y e y y y                     r y i ] ] ] ] ' y y | g.g. X X X X X X X X X X X X X X X X X X X X X X",
" X X X}.    ( ] ] ] ] ] ] ] ] ] ] ] ] .                   ` ] ] ] ] ] ] ] ] ] 0   .  X X X X X X X X X X X X X X X X X X X X X X",
" X X X}.    ( ] ] ] ] ] ] ] ] ] ] ] ]                     ` ] ] ] ] ] ] ] ] ] 0   .  X X X X X X X X X X X X X X X X X X X X X X",
" X X X X|.|.L   . .   . . . . . .   . |.|.|.|.|.|.|.M.    . . . . . . . .   . b.|. X X X X X X X X X X X X X X X X X X X X X X X",
" X X X X X XL                          X X X X X X Xm.                        b. X X X X X X X X X X X X X X X X X X X X X X X X",
" X X X X X Xg.K K K K K K K K K K K K  X X X X X X X^.K K K K K K K K K K K K Q. X X X X X X X X X X X X X X X X X X X X X X X X",
" X X X X X X X X X X X X X X X X X X X X X X X X X X X X X X X X X X X X X X X X X X X X X X X X X X X X X X X X X X X X X X X X",
" X X X X X X X X X X X X X X X X X X X X X X X X X X X X X X X X X X X X X X X X X X X X X X X X X X X X X X X X X X X X X X X X",
" X X X X X X X X X X X X X X X X X X X X X X X X X X X X X X X X X X X X X X X X X X X X X X X X X X X X X X X X X X X X X X X X",
" X X X X X X X X X X X X X X X X X X X X X X X X X X X X X X X X X X X X X X X X X X X X X X X X X X X X X X X X X X X X X X X X",
" X X X X X X X X X X X X X X X X X X X X X X X X X X X X X X X X X X X X X X X X X X X X X X X X X X X X X X X X X X X X X X X X",
" X X X X X X X X X X X X X X X X X X X X X X X X X X X X X X X X X X X X X X X X X X X X X X X X X X X X X X X X X X X X X X X X",
" X X X X X X X X X X X X X X X X X X X X X X X X X X X X X X X X X X X X X X X X X X X X X X X X X X X X X X X X X X X X X X X X",
" X X X X X X X X X X X X X X X X X X X X X X X X X X X X X X X X X X X X X X X X X X X X X X X X X X X X X X X X X X X X X X X X"
};