/* XPM */
/* XPM */
static char *_f35140cc8f34f828a96a146ebfd3e75gC5lnfikipfrdjoQ[] = {
/* columns rows colors chars-per-pixel */
"64 64 83 1 ",
"  c black",
". c #0E0B32",
"X c #0F0A33",
"o c #0E0B33",
"O c #0F0B33",
"+ c #0F0A34",
"@ c #0F0B34",
"# c #0F0C34",
"$ c #100A33",
"% c #100B33",
"& c #100C33",
"* c #18143B",
"= c #19153B",
"- c #1D1A3F",
"; c #543631",
": c #613E31",
"> c #644031",
", c #6D4631",
"< c #764B30",
"1 c #7D5030",
"2 c #201D41",
"3 c #252246",
"4 c #272347",
"5 c #2A274A",
"6 c #3F3C5B",
"7 c #3F3C5C",
"8 c #4F4D69",
"9 c #585570",
"0 c #5A5772",
"q c #5E5B75",
"w c #605D77",
"e c #69667E",
"r c #845430",
"t c #865530",
"y c #996130",
"u c #A6692F",
"i c #B2702F",
"p c #B6732F",
"a c #BD772F",
"s c #BD782F",
"d c #C07A2E",
"f c #C17A2F",
"g c #C27A2F",
"h c #CD812E",
"j c #D1832E",
"k c #DB892D",
"l c #DA8A2D",
"z c #DB8A2E",
"x c #DB8B2E",
"c c #DB8B2F",
"v c #106E8D",
"b c #0F7393",
"n c #0F85A4",
"m c #0FBCD5",
"M c #0EBCD6",
"N c #0FBCD6",
"B c #10BCD6",
"V c #10BDD6",
"C c #838195",
"Z c #858396",
"A c #8D8B9C",
"S c #9290A1",
"D c #9796A5",
"F c #A5A4B1",
"G c #ACABB7",
"H c #AFAEB9",
"J c #BFBEC6",
"K c #C1C1C8",
"L c #C4C3CB",
"P c #CFD9DA",
"I c #D0D0D5",
"U c #D2D1D6",
"Y c #D1D9DB",
"T c #D2DADB",
"R c #DADADA",
"E c gray86",
"W c #DBDADE",
"Q c #DCDBDE",
"! c #DCDCDF",
"~ c #E0E0E3",
"^ c #E4E3E5",
"/ c #EAE9EA",
"( c gray93",
/* pixels */
"                                                                ",
"                                                                ",
"                                                                ",
"                                                                ",
"                                                                ",
"                                                                ",
"                                                                ",
"                                                                ",
"                                                                ",
"                                                                ",
"                                                                ",
"                                                                ",
"                                   EE                           ",
"                                 EEEE                           ",
"                                EEEEE                           ",
"                                EEEE                            ",
"                               EEEE                             ",
"                               EEEE                             ",
"                               EEEE                             ",
"                               EEEE                             ",
"                               PYYY                             ",
"                             NNNmmNNN                           ",
"                            NNNNNNNNNNV                         ",
"                           NNNNNNNNNNNV                         ",
"                           vnnnnnnnnnnb                         ",
"                          OOOOOOOOOOOOOO                        ",
"                        OOOOOOOOOOOOOOOOOO                      ",
"                       OOOOOOOOOOOOOOOOOOOO&                    ",
"                      OOOOOOOOOOOOOOOOOOOOO$$$                  ",
"                     OOOOOOOOOOOOOOOOOOOOOOOOO                  ",
"                    OOOOOOOOOOOOOOOOOOOOOOOOOOO                 ",
"                   OOOOOOOOOOOOOOOOOOOOOOOOOOOO                 ",
"                  OOOOOOOOOOOOOOOOOOOOOOOOOOOOOO                ",
"                 #OOOOOOOOO0eOOOOOOOOO6COOOOOOOOO               ",
"                 #OOOOOOOO8HJ9OOOOOOO7SQq*OOOOOOO               ",
"                 $OOOOOOOOL((!OOOOOOOD(((5OOOOOOO               ",
"                $OOOOOOOOOL((!OOOOOOOD(((5OOOOOOO               ",
"                $OOOOOOOOOL((!OOOOOOOD(((5OOOOOOO+              ",
"                $OOOOOOOOOL((!OOOOOOOD(((5OOOOOOOO              ",
"                $OOOOOOOOOL((!OOOOOOOD(((5OOOOOOOO              ",
"                $OOOOOOOOOG~^KOOOOOOOZW/U3OOOOOOOO              ",
"                $OOOOOOOOOOAFOOOOOOOOOwUOOOOOOOOOO              ",
"                $OOOOOOOOOO-2OOOOOOOOO*3OOOOOOOOOO              ",
"                $OOOOOOOOOOOOOOOOOOOOOOOOOOOOOOOOO              ",
"                $OOOOOOOOOOOOOOOOOOOOOOOOOOOOOOOOO              ",
"                $OOOOOOOOOOOOOOOOOOOOOOOOOOOOOOOOO              ",
"                $OOOOOOOOOOOOOOOOOOOOOOOOOOOOOOOO               ",
"                $OOOOOOOOOOOOOOOOOOOOOOOOOOOOOOOO               ",
"                 +OOOOOOOOOOOOOOOOOOOOOOOOOOOOOOO               ",
"                 #OOOOOOOOOOOOOOOOOOOOOOOOOOOOOO                ",
"                  OOOOOOOOOOOOOOOOOOOOOOOOOOOOO                 ",
"                   OOOOOOOOOOOOOOOOOOOOOOOOOOO                  ",
"                    OO<hhhh:OOOOOOOOOthhhh;OOO                  ",
"                    O1szzzzp,OOOOOOOtgzzzzi>&                   ",
"                    OszzzzzzyOOOOOOOazzzzzzu                    ",
"                     lzzzzzzyOOOOOOOszzzzzzz                    ",
"                     zzzzzzzyOOOOOOOazzzzzzx                    ",
"                     zzzzzzzyOO#OOOOazzzzzzx                    ",
"                     zzzzzzzg       jzzzzzzx                    ",
"                     zzzzzzzz       zzzzzzzx                    ",
"                     zzzzzzzz       zzzzzzzx                    ",
"                     zzzzzzzz       zzzzzzzz                    ",
"                      zzzzz          zzzzz                      ",
"                                                                "
};