/* XPM */
static char *_fe11bf55d55449aa35e2a4cfbdc5ddeSSTUiZLFrVt2aAW9[] = {
/* columns rows colors chars-per-pixel */
"64 64 86 1 ",
"  c black",
". c #010000",
"X c #050000",
"o c #070000",
"O c #080000",
"+ c #0A0000",
"@ c #0B0000",
"# c #0D0000",
"$ c #130000",
"% c #140000",
"& c #180000",
"* c #190000",
"= c #1A0000",
"- c #1D0000",
"; c #200000",
": c #210000",
"> c #230101",
", c #2C0101",
"< c #2E0101",
"1 c #3C0101",
"2 c #400101",
"3 c #460101",
"4 c #480101",
"5 c #4C0101",
"6 c #4D0101",
"7 c #4E0101",
"8 c #520101",
"9 c #550202",
"0 c #580101",
"q c #5B0202",
"w c #5C0202",
"e c #610202",
"r c #630202",
"t c #670202",
"y c #6A0202",
"u c #6C0202",
"i c #6D0202",
"p c #6E0202",
"a c #720202",
"s c #780202",
"d c #820202",
"f c #890303",
"g c #8A0303",
"h c #8C0303",
"j c #8E0202",
"k c #940303",
"l c #990303",
"z c #9B0303",
"x c #9C0303",
"c c #9F0303",
"v c #A30303",
"b c #A60303",
"n c #A70303",
"m c #A90303",
"M c #AA0303",
"N c #AF0303",
"B c #B00303",
"V c #B20303",
"C c #B50303",
"Z c #B80303",
"A c #BA0404",
"S c #BC0404",
"D c #BD0404",
"F c #C10404",
"G c #C20404",
"H c #C30404",
"J c #C60404",
"K c #CA0404",
"L c #CB0404",
"P c #CC0404",
"I c #D40404",
"U c #D60404",
"Y c #D70404",
"T c #D80404",
"R c #DF0404",
"E c #E20404",
"W c #EB0505",
"Q c #EC0505",
"! c #F20505",
"~ c #F80505",
"^ c #F90505",
"/ c #FB0505",
"( c #FC0505",
") c #FD0505",
"_ c #FE0505",
"` c #FF0505",
/* pixels */
"                                                                ",
"                                                                ",
"                                                                ",
"                                                                ",
"                                                                ",
"                                                                ",
"                                                                ",
"                                                                ",
"                                                                ",
"                                                                ",
"                                                                ",
"OOOOOOOOOOOOOOOOOOOOOOOOOOOOOOOOOOOOOOOOOOOOOOOOOOOOOOOOOOOOOooo",
"OOOOOOOOOOOOOOOOOOOOOOOOOOOOOOOOOOOOOOOOOOOOOOOOOOOOOOOOOOOOOOOo",
"OOOOOOOOOOOOOOOOOOOOOOOOOOOOOOOOOOOOOOOOOOOOOOOOOOOOOOOOOOOOOOoo",
"OOOOOOOOOOOOOOOOOOOOOOOOOOOOOOOOOOOOOOOOOOOOOOOOOOOOOOOOOOOOOOoo",
"OOOOOOOOOOOOOOOOOOOOOOOOOOOOOOOOOOOOOOOOOOOOOOOOOOOOOOOOOOOOOOO ",
"OOOOOOOOOOOOOOOOOOOOOOOOOOOOOOOOOOOOOOOOOOOOOOOOOOOOOOOOOOOOOOOo",
"OOOOOOOOOOOOOOOOOOOOOOOOOOOOOOOOOOOOOOOOOOOOOOOOOOOOOOOOOOOOOOoo",
"OOOOOOOOOOOOOOOOOOOOOOOOOOOOOOOOOOOOOOOOOOOOOOOOOOOOOOOOOOOOOOoo",
"OOOOOOOOOOOOOOOOOOOOOOOOOOOOOOOOOOOOOOOOOOOOOOOOOOOOOOOOOOOOOOO ",
"OOOOOOOOOOOOOOOOOOOOOOOOOOOOOOOOOOOOooOOOOOOOOOOOOOOOOOOOOOOOOOo",
"OOOOOOOOOOOOOOOOOOOO;333333333333333333333,OOOOOOOOOOOOOOOOOOOoo",
"OOOOOOOOOOOOOOOOOOOOt`````````````````````zoOOOOOOOOOOOOOOOOoooo",
"OOOOOOOOOOOOOOOOOOOOt`````````````````````zoOOOOOOOOOOOOOOOOOooo",
"OOOOOOOOOOOOOOOOOOOOt`````````````````````zooOOOOOOOOOOOOOOOOOOo",
"OOOOOOOOOOOOOuzzzzzzG`````````````````````IzzzzzxfOOOOOOOOOOOOoo",
"OOOOOOOOOOOOOB```````````````````````````````````EOOOOOOOOOOOOoo",
"OOOOOOOOOOOOOB```````````````````````````````````EOOOOOOOOOOOOO ",
"OOOOOOOOOOoooB```````````````````````````````````EoooOOOOOOOOOOo",
"OOOOOOOOOqWWW^````````````````````````````````````WWWfOOOOOOOOoo",
"OOOOOOOOOr```````````````````````````````````````````kOOOOOOOOoo",
"OOOOOOOOOr```````````````````````````````````````````kOOOOOOOOO ",
"OOOOOO777j```TJJL```````IJJL```````IJJP```````IJJP```V777=OOOOOo",
"OOOOO%^``````9OO%```````8OO-```````7OO;```````4OO;```````1OOOOoo",
"OOOOO%^``````9OO=^``````8OO-^``````7OO;```````4OO>```````2OOOOoo",
"OOOOO%^``````9OO=```````8OO-```````7OO;```````4OO;```````2OOOOO ",
"OOuvcv```````Dccn```````Dccn```````AxxM```````Zxvm```````CcchOOo",
"OON`````````````````````````````````````````````````````````Eooo",
"OON`````````````````````````````````````````````````````````ROoo",
"OON`````````````````````````````````````````````````````````ROO ",
"OO%======u``````````V======,```````q======d``````````c=======OOo",
"OOOOOOOOOr``````````moOOOOO-```````7OOOOOOs``````````kOOOOOOoooo",
"OOOOOOOOOr``````````mOOOOOo-```````7OOOOOOs``````````kOOOOOOOOoo",
"OOOOOOOOo7GGGQ``^GGGdOOOOOo=GGGGGGG1OOOOOOwGGG!``~GGGaOOOOOOOOO ",
"OOOOOOOOOOOOoN``^#OOOOOOOOOOOOOOOOOOOOOOOOOOOOL``EoOOOOOOOOOOOOo",
"OOOOOOOOOOOOOV``^#OOOOOOOOOOOOOOOOOOOOOOOOOOOOL``EOOOOOOOOOOOOoo",
"OOOOOOOOOOOOOV``^#OOOOOOOOOOOOOOOOOOOOOOOOOOOOP``EOOOOOOOOOOOOoo",
"OOOOOOOOOOOOO4uuuOOOOOOOOOOOOOOOOOOOOOOOOOOOOOquurOOOOOOOOOOOOO ",
"OOOOOOOOOOOOOOOOOOOOOOOOOOOOOOOOOOOOOOOOOOOOOOOOoOOOOOOOOOOOOOOo",
"OOOOOOOOOOOOOOOOOOOOOOOOOOOOOOOOOOOOOOOOOOOOOOOOOOOOOOOOOOOOOOoo",
"OOOOOOOOOOOOOOOOOOOOOOOOOOOOOOOOOOOOOOOOOOOOOOOOOOOOOOOOOOOOOOoo",
"OOOOOOOOOOOOOOOOOOOOOOOOOOOOOOOOOOOOOOOOOOOOOOOOOOOOOOOOOOOOOOO ",
"OOOOOOOOOOOOOOOOOOOOOOOOOOOOOOOOOOOOOOOOOOOOOOOOOOOOOOOOOOOOOOOo",
"OOOOOOOOOOOOOOOOOOOOOOOOOOOOOOOOOOOOOOOOOOOOOOOOOOOOOOOOOOOOOOoo",
"OOOOOOOOOOOOOOOOOOOOOOOOOOOOOOOOOOOOOOOOOOOOOOOOOOOOOOOOOOOOOOoo",
"OOOOOOOOOOOOOOOOOOOOOOOOOOOOOOOOOOOOOOOOOOOOOOOOOOOOOOOOOOOOOOO ",
"OOOOOOOOOOOOOOOOOOOOOOOOOOOOOOOOOOOOOOOOOOOOOOOOOOOOOOOOOOOOOOOo",
"OOOOOOOOOOOOOOOOOOOOOOOoOOOOOOOOOOOOOOOOOOOOOOOoOOOOOOOOOOOoOOoo",
"   o         o    o    o     o         o  o    o     o     o    ",
"                                                                ",
"                                                                ",
"                                                                ",
"                                                                ",
"                                                                "
};